<?xml version="1.0" standalone="no"?><!DOCTYPE svg PUBLIC "-//W3C//DTD SVG 1.1//EN" "http://www.w3.org/Graphics/SVG/1.1/DTD/svg11.dtd"><svg t="1585294637645" class="icon" viewBox="0 0 1274 1024" version="1.1" xmlns="http://www.w3.org/2000/svg" p-id="1011" xmlns:xlink="http://www.w3.org/1999/xlink" width="248.828125" height="200"><defs><style type="text/css"></style></defs><path d="M637.461528 1016.58605L92.206203 557.780756c-120.234924-135.891712-107.448547-345.370329 28.443165-465.651302 135.876362-120.234924 345.370329-107.448547 465.651302 28.458515l14.321356 16.178681 36.839502 41.643987" fill="#ED5661" p-id="1012"></path><path d="M631.229512 1024L85.958837 565.179356c-125.070108-141.21809-111.946036-356.207282 28.243618-480.295004C181.86434 25.020162 268.882313-4.896584 359.921932 0.660041c90.794022 5.525925 173.775 45.83448 233.63919 113.496365L644.69128 171.979074l-14.520903 12.863126-51.130159-57.807318c-56.425837-63.809087-134.679078-101.815173-220.30022-107.034103s-167.911379 23.024689-231.674417 79.419826c-132.207762 116.980768-144.579695 319.720826-27.629626 451.943938l544.272939 457.807558z" fill="#FFCADE" p-id="1013"></path><path d="M637.461528 1016.58605l543.321251-456.687023c120.925664-135.262371 109.183073-344.863786-26.094647-465.7741-135.262371-120.910315-344.863786-109.183073-465.78945 26.094647l-51.437154 57.469623" fill="#ED5661" p-id="1014"></path><path d="M643.708894 1024l-12.479382-14.827899L1174.535414 552.439028c55.781146-62.519704 84.423858-144.656443 79.619373-230.246886s-42.396127-164.058581-105.913567-220.822113c-131.59377-117.732908-334.425927-106.343362-452.066736 25.235059L644.69128 184.151459l-14.444154-12.924525 51.467854-57.561721C806.478092-25.818351 1021.528683-37.883288 1161.181095 86.849125c67.324189 60.201886 107.2183 143.367061 112.299081 234.207133S1248.214417 498.960351 1188.073931 566.31524z" fill="#FFCADE" p-id="1015"></path><path d="M492.052945 535.876602a88.353405 88.353405 0 0 1-23.70008-3.284856c-89.903734-24.897363-132.008215-189.815533-133.850189-196.815038l35.304522-8.85683c10.560657 42.058431 50.562216 154.679858 108.246736 170.643642 23.853577 6.585061 50.654315-4.681687 79.527274-33.539296 134.786527-134.832576 210.169357-149.276731 227.821619-150.719612 16.608475-5.14218 109.367271-30.899132 156.306936 15.963785 30.30049 30.30049 33.585346 81.921842 9.762468 153.359775l-34.490984-11.496994c13.124072-39.372217 23.592631-91.484763-0.982386-116.10583-28.704112-28.780861-97.547931-14.413455-121.555006-6.431563l-5.756172 0.951687c-0.291646 0-69.611308 4.42074-205.380222 140.189654-30.714935 30.668885-61.261021 46.141476-91.254516 46.141476z" fill="#FFFFF3" p-id="1016"></path></svg>